<?xml version="1.0" standalone="no"?>
<!DOCTYPE svg PUBLIC "-//W3C//DTD SVG 20010904//EN"
 "http://www.w3.org/TR/2001/REC-SVG-20010904/DTD/svg10.dtd">
<svg version="1.0" xmlns="http://www.w3.org/2000/svg"
 width="600.000000pt" height="600.000000pt" viewBox="0 0 600.000000 600.000000"
 preserveAspectRatio="xMidYMid meet">
<metadata>
Created by potrace 1.14, written by Peter Selinger 2001-2017
</metadata>
<g transform="translate(0.000000,600.000000) scale(0.100000,-0.100000)"
fill="#000000" stroke="none">
<path d="M0 3000 l0 -3000 3000 0 3000 0 0 3000 0 3000 -3000 0 -3000 0 0
-3000z m5355 1013 c225 -64 392 -196 494 -393 64 -122 85 -213 85 -360 0 -149
-15 -215 -81 -348 -81 -165 -243 -311 -416 -377 -155 -58 -40 -56 -2482 -53
-2147 3 -2243 4 -2305 22 -336 96 -555 357 -586 701 -13 145 35 333 119 468
56 89 178 207 267 260 68 40 188 82 274 96 28 5 1064 8 2301 7 l2250 -1 80
-22z m-367 -1819 c47 -33 18 -145 -47 -179 -44 -22 -46 -19 -12 16 39 39 39
47 -1 51 -29 3 -33 7 -36 35 -4 39 12 71 41 83 30 12 30 12 55 -6z m338 -16
c4 -14 -2 -29 -21 -48 -17 -18 -23 -30 -16 -34 6 -4 11 -23 11 -41 0 -26 -6
-39 -26 -52 -24 -15 -29 -15 -53 -2 -37 21 -37 44 -1 78 20 18 28 31 21 35
-15 9 -14 59 1 74 18 18 33 15 18 -3 -19 -23 4 -72 25 -55 17 14 20 60 5 60
-5 0 -10 4 -10 9 0 17 39 -1 46 -21z m-4436 -72 c0 -66 4 -96 13 -99 6 -3 -8
-5 -33 -5 -25 0 -39 2 -32 5 6 2 12 18 12 34 0 24 -4 29 -24 29 -25 0 -62 -43
-51 -60 3 -6 -5 -10 -19 -10 -25 0 -25 1 -8 18 9 9 42 54 72 99 30 45 58 82
63 83 4 0 7 -42 7 -94z m414 67 c-3 -16 -8 -35 -10 -44 -4 -13 3 -16 33 -15
l38 1 0 -57 c0 -57 0 -58 -29 -58 -22 0 -26 3 -18 13 17 20 25 84 12 92 -20
12 -51 -28 -53 -68 -2 -34 -4 -37 -32 -37 -19 0 -25 3 -18 8 7 5 20 45 30 91
14 71 14 84 2 92 -10 6 -4 9 19 9 30 0 32 -2 26 -27z m609 20 c9 -9 -13 -34
-24 -27 -14 8 -11 34 4 34 8 0 17 -3 20 -7z m369 -93 l3 -100 -35 0 c-23 0
-30 3 -22 9 21 13 11 55 -14 59 -28 4 -72 -47 -52 -60 8 -5 3 -8 -16 -8 l-29
0 20 23 c11 12 43 57 72 100 28 42 56 77 61 77 5 0 10 -45 12 -100z m238 85
c0 -8 -9 -15 -20 -15 -20 0 -26 11 -13 23 12 13 33 7 33 -8z m629 -14 l0 -26
-16 23 c-21 30 -46 28 -77 -9 -44 -52 -29 -149 23 -149 9 0 28 7 41 16 l25 17
-20 -21 c-11 -12 -34 -24 -52 -28 -26 -5 -37 -1 -59 21 -23 23 -26 32 -22 76
8 74 46 108 121 107 33 -1 37 -4 36 -27z m380 -8 c-12 -53 -13 -52 26 -46 28
4 35 2 35 -10 0 -9 -10 -23 -22 -31 l-22 -16 22 -30 c22 -29 22 -30 3 -30 -12
0 -28 11 -37 25 -9 14 -21 25 -26 25 -6 0 -8 -11 -6 -25 5 -22 2 -25 -26 -25
-17 0 -26 4 -20 8 6 4 19 42 28 85 14 61 15 81 6 93 -10 12 -7 14 18 14 29 0
30 -1 21 -37z m161 22 c0 -8 -9 -15 -20 -15 -20 0 -26 11 -13 23 12 13 33 7
33 -8z m620 -13 c0 -13 -2 -14 -9 -4 -5 8 -21 12 -37 10 -23 -2 -30 -9 -35
-36 -8 -39 7 -50 41 -32 19 10 21 9 18 -7 -2 -14 -11 -17 -35 -15 -29 3 -33 0
-41 -30 -5 -18 -7 -36 -5 -40 8 -15 66 -8 86 10 19 16 20 16 8 -5 -11 -21 -19
-23 -89 -23 -52 0 -72 3 -62 10 18 11 52 160 40 175 -6 7 13 9 56 7 52 -3 64
-7 64 -20z m505 6 c-27 -116 -33 -163 -22 -170 7 -4 -6 -8 -28 -8 -23 0 -35 4
-28 8 15 9 46 139 40 163 -5 18 5 27 31 28 8 1 11 -7 7 -21z m324 7 c-22 -12
-59 -55 -59 -68 0 -2 11 -2 25 1 55 10 76 -58 30 -103 -29 -30 -58 -32 -85 -5
-25 25 -26 65 -1 110 19 37 74 80 100 80 10 -1 7 -6 -10 -15z m-3956 -44 c-4
-14 1 -21 19 -24 22 -4 22 -4 -3 -6 -21 -1 -28 -7 -33 -32 -11 -57 -8 -71 14
-64 30 9 24 -4 -6 -15 -42 -16 -54 1 -41 57 7 34 6 48 -1 51 -6 2 1 14 16 27
33 30 42 31 35 6z m610 -1 c-4 -16 0 -20 18 -21 l24 -1 -25 -7 c-17 -5 -27
-16 -31 -36 -13 -59 -11 -68 14 -62 21 6 22 6 2 -9 -37 -28 -50 -14 -47 49 1
38 -2 57 -9 57 -9 0 34 36 58 49 0 1 -1 -8 -4 -19z m2730 0 c-4 -16 0 -20 18
-21 l24 -1 -25 -7 c-24 -7 -37 -33 -39 -80 -1 -19 3 -22 20 -18 13 4 18 2 13
-3 -5 -5 -21 -11 -34 -12 -24 -3 -25 -1 -22 55 1 40 -2 57 -10 57 -9 0 45 45
59 50 0 0 -1 -9 -4 -20z m-2483 -38 c0 -14 -2 -13 -13 2 -12 16 -13 16 -29 -1
-43 -47 -25 -108 24 -82 21 11 22 11 10 -4 -22 -26 -51 -31 -73 -11 -23 21
-24 52 -3 82 28 40 84 49 84 14z m340 13 c-10 -12 -8 -20 9 -41 38 -48 21 -85
-37 -81 -22 1 -31 6 -27 15 3 8 5 19 6 25 0 7 4 2 9 -10 9 -23 34 -31 44 -14
4 5 -5 23 -20 40 -28 33 -26 66 4 74 9 3 19 5 21 6 2 0 -2 -6 -9 -14z m1054
-17 c27 -43 -52 -121 -100 -99 -65 29 3 146 71 121 10 -4 23 -14 29 -22z m996
5 c0 -12 -2 -12 -15 1 -9 8 -22 13 -31 9 -12 -4 -10 -11 11 -39 29 -39 32 -60
7 -73 -30 -16 -72 -9 -72 13 0 18 1 18 19 2 20 -19 41 -14 41 8 0 7 -9 21 -20
31 -26 24 -25 54 2 64 29 10 58 3 58 -16z m-3442 -29 c-12 -54 -2 -72 30 -55
25 13 40 80 20 92 -9 6 -4 9 15 9 l29 0 -7 -51 c-5 -36 -4 -54 5 -59 7 -5 0
-9 -19 -12 -17 -2 -31 -1 -31 4 0 4 -11 3 -25 -4 -39 -18 -58 5 -50 60 5 32 3
47 -7 53 -9 6 -3 9 18 9 l32 0 -10 -46z m537 26 c0 -8 -19 -24 -43 -35 -44
-20 -48 -31 -19 -49 12 -8 23 -7 39 2 22 13 22 12 -1 -8 -28 -24 -40 -25 -69
-4 -49 34 -4 118 61 112 20 -2 32 -8 32 -18z m160 -42 c0 -57 0 -58 -29 -58
-23 0 -26 3 -17 14 15 18 19 88 6 93 -24 8 -47 -23 -48 -65 -2 -40 -4 -42 -32
-42 -18 0 -25 3 -18 8 19 12 29 92 12 103 -9 5 13 8 56 6 l70 -2 0 -57z m218
35 c-4 -16 -8 -43 -8 -60 0 -30 -3 -33 -29 -33 -22 0 -26 3 -18 13 19 22 26
88 11 98 -10 6 -4 9 19 9 31 0 32 -2 25 -27z m521 12 c-4 -8 -7 -15 -9 -15 -2
0 -5 7 -9 15 -3 9 0 15 9 15 9 0 12 -6 9 -15z m86 3 c0 -7 -5 -31 -10 -53 -6
-28 -6 -42 3 -47 7 -4 -6 -8 -28 -8 -25 0 -35 3 -27 9 19 12 33 82 20 98 -8
10 -4 13 16 13 14 0 26 -6 26 -12z m167 -39 c-8 -39 -7 -53 2 -59 9 -5 2 -9
-18 -12 -17 -2 -31 -1 -31 4 0 4 -11 3 -25 -4 -32 -14 -55 4 -55 42 0 40 50
80 99 80 l38 0 -10 -51z m178 -11 c0 -58 0 -58 -30 -58 -18 0 -25 3 -18 8 16
10 28 88 15 96 -20 12 -42 -7 -53 -46 -8 -32 -8 -43 3 -49 8 -6 -2 -9 -27 -9
-22 0 -35 4 -28 8 7 4 16 27 21 50 8 35 7 44 -7 52 -11 6 6 8 54 7 l70 -2 0
-57z m355 42 c-21 -21 -28 -84 -11 -94 19 -12 41 7 52 45 10 31 9 42 -2 55
-12 14 -11 16 5 13 52 -10 44 -80 -12 -112 -67 -39 -111 23 -61 87 11 14 27
26 35 26 10 0 9 -5 -6 -20z m470 8 c0 -7 -5 -31 -10 -53 -6 -28 -6 -42 3 -47
7 -4 -6 -8 -28 -8 -25 0 -35 3 -27 9 19 12 33 82 20 98 -8 10 -4 13 16 13 14
0 26 -6 26 -12z m175 -50 c0 -57 0 -58 -29 -58 -21 0 -26 3 -19 13 6 6 13 29
17 50 6 29 4 39 -9 43 -26 10 -49 -21 -50 -66 0 -37 -2 -40 -29 -40 -22 0 -26
3 -18 13 19 22 26 88 11 98 -9 5 13 8 56 6 l70 -2 0 -57z m162 -30 c-20 -99
-39 -128 -84 -128 -33 0 -63 17 -63 36 0 8 12 26 26 39 21 20 24 28 15 39 -32
38 25 106 89 106 l37 0 -20 -92z m592 -24 c-12 -15 -39 -8 -39 11 0 18 22 25
38 12 9 -7 9 -13 1 -23z"/>
<path d="M755 3930 c-287 -40 -520 -257 -575 -537 -19 -98 -9 -262 23 -351 70
-199 215 -344 416 -416 l86 -31 2270 -3 c2218 -2 2272 -2 2347 17 97 25 172
60 249 118 115 87 211 236 245 380 20 86 20 239 -1 318 -47 182 -183 353 -345
433 -171 84 60 76 -2435 78 -1221 1 -2247 -2 -2280 -6z m1915 -211 c116 -53
196 -156 231 -299 23 -93 16 -259 -15 -365 -31 -103 -90 -221 -118 -236 -10
-6 -31 -9 -46 -7 -24 3 -27 7 -26 38 1 19 13 67 27 105 14 39 27 84 29 100 l3
30 -264 3 -264 2 7 -41 c4 -23 21 -77 38 -122 34 -89 31 -110 -16 -115 -39 -5
-63 21 -107 113 -58 124 -73 192 -74 335 0 136 11 189 56 280 96 194 335 273
539 179z m843 11 c115 -44 218 -169 248 -305 7 -30 15 -55 19 -55 4 0 10 18
13 40 3 22 18 68 35 102 106 228 355 307 616 198 65 -27 71 -28 104 -15 72 31
70 15 -12 -80 -36 -40 -79 -93 -96 -117 -41 -56 -55 -55 -55 4 -1 88 -80 151
-189 152 -80 0 -130 -18 -182 -66 -143 -131 -116 -400 48 -482 43 -21 66 -26
131 -26 83 0 106 7 149 48 37 34 45 82 22 121 -10 17 -15 33 -12 36 12 12 311
11 315 -1 2 -6 -8 -25 -22 -42 -14 -17 -29 -47 -32 -66 -8 -54 26 -136 58
-136 5 0 9 17 9 39 0 49 22 101 61 146 37 42 48 43 80 9 28 -31 77 -54 113
-54 34 0 40 -14 25 -55 -12 -33 -12 -37 14 -63 24 -23 36 -27 100 -30 115 -5
182 44 182 133 0 77 -63 121 -225 154 -114 23 -145 34 -188 68 -50 38 -72 80
-72 138 1 88 48 162 131 207 38 20 58 23 154 23 112 0 178 -12 247 -47 40 -19
43 -42 7 -53 -11 -4 -26 -20 -34 -36 -16 -29 -29 -36 -39 -20 -3 5 -26 18 -50
30 -90 42 -205 37 -261 -12 -33 -29 -44 -87 -21 -122 23 -36 58 -50 175 -74
169 -34 255 -84 304 -176 18 -32 22 -57 22 -126 0 -75 -4 -92 -30 -144 -36
-70 -100 -123 -190 -157 -85 -32 -244 -32 -327 1 -65 25 -139 99 -158 156 -13
41 -18 42 -53 15 -29 -23 -49 -25 -78 -7 -18 10 -23 9 -33 -8 -24 -42 -105
-113 -162 -141 -54 -27 -68 -29 -169 -29 -103 0 -114 2 -177 32 -113 53 -183
141 -224 282 -12 42 -24 69 -27 61 -2 -8 -12 -48 -21 -88 -21 -97 -71 -214
-106 -252 -32 -34 -86 -42 -97 -14 -3 9 11 66 32 127 33 96 38 125 39 202 1
114 -18 168 -80 225 -60 56 -105 73 -189 73 -82 1 -142 -22 -194 -74 -58 -57
-76 -110 -75 -219 0 -83 5 -109 39 -207 41 -121 40 -143 -12 -143 -74 0 -168
220 -180 420 -14 260 104 458 307 515 74 20 197 14 273 -15z m1239 13 c10 -9
18 -25 18 -35 0 -40 -92 -184 -110 -173 -6 3 -10 48 -10 100 0 72 4 97 16 109
20 21 63 20 86 -1z m-3627 -4 c56 -15 127 -63 157 -104 l24 -35 -49 -51 c-30
-31 -63 -81 -84 -126 -29 -63 -38 -74 -56 -71 -16 2 -23 12 -27 37 -7 46 -45
73 -113 79 -126 10 -236 -110 -237 -260 0 -98 29 -169 99 -238 61 -60 106 -80
184 -80 61 0 94 14 138 57 41 39 68 39 95 -2 22 -34 2 -71 -59 -112 -170 -114
-456 -20 -551 181 -159 337 43 734 374 736 36 0 83 -5 105 -11z m364 -16 l20
-18 -19 -55 c-11 -31 -19 -82 -20 -117 0 -90 6 -93 202 -93 168 0 207 8 209
44 2 60 -4 125 -17 161 -20 58 -18 74 13 86 44 17 70 4 87 -43 10 -26 28 -168
46 -358 17 -173 35 -357 41 -407 13 -102 6 -123 -36 -123 -43 0 -58 32 -72
162 -20 190 -31 198 -268 198 -234 0 -247 -9 -265 -185 -13 -132 -24 -163 -58
-172 -39 -9 -57 9 -55 53 2 52 71 749 79 796 12 76 66 110 113 71z"/>
<path d="M2417 3446 c-27 -7 -67 -26 -89 -42 -42 -30 -94 -110 -100 -154 l-3
-25 268 -3 c196 -2 267 1 267 9 0 65 -71 163 -143 197 -58 27 -140 35 -200 18z"/>
<path d="M4936 2187 c-20 -15 -25 -72 -7 -90 19 -19 46 5 49 45 4 43 -16 64
-42 45z"/>
<path d="M5231 2071 c-15 -27 -14 -46 5 -61 12 -11 18 -10 31 3 13 13 15 23 7
44 -12 34 -30 40 -43 14z"/>
<path d="M826 2105 c-16 -24 -16 -25 4 -25 15 0 20 7 20 25 0 14 -2 25 -4 25
-2 0 -11 -11 -20 -25z"/>
<path d="M2212 2110 c-16 -27 -15 -30 8 -30 15 0 20 7 20 25 0 30 -11 32 -28
5z"/>
<path d="M3528 2099 c-17 -9 -26 -39 -12 -39 16 0 44 23 44 35 0 17 -8 18 -32
4z"/>
<path d="M5074 2085 c-29 -45 5 -104 41 -69 18 18 20 65 3 82 -17 17 -26 15
-44 -13z"/>
<path d="M3351 2091 c-14 -26 -14 -78 0 -87 18 -11 51 31 52 67 2 28 -2 35
-20 37 -14 2 -26 -4 -32 -17z"/>
<path d="M1452 2089 c-7 -12 -11 -23 -8 -26 7 -8 56 25 56 37 0 18 -35 10 -48
-11z"/>
<path d="M2596 2088 c-21 -29 -20 -67 0 -75 21 -8 40 14 52 60 10 35 9 37 -13
37 -13 0 -31 -10 -39 -22z"/>
<path d="M3956 2095 c-25 -25 -30 -56 -12 -73 14 -14 18 -14 30 -2 8 8 18 32
21 53 6 30 4 37 -8 37 -9 0 -22 -7 -31 -15z"/>
<path d="M3943 1993 c-17 -8 -34 -21 -37 -29 -12 -32 24 -65 49 -44 12 10 30
78 23 85 -2 2 -18 -3 -35 -12z"/>
</g>
</svg>
